<svg width="43" height="43" viewBox="0 0 43 43" fill="none" xmlns="http://www.w3.org/2000/svg">
<circle cx="21.5" cy="21.5" r="21.5" fill="#131313"/>
<path d="M17.7289 17.7685H15.0844V25.4375H12.9043V17.7685H10.2598V16.0399H17.7289V17.7685ZM19.3085 25.3601C19.2612 25.4762 19.1988 25.5794 19.1214 25.6697C19.0483 25.76 18.9645 25.8352 18.8699 25.8954C18.7796 25.9556 18.6807 26.0008 18.5732 26.0309C18.47 26.061 18.3668 26.076 18.2636 26.076H17.4122L21.0758 16.4591C21.1618 16.2398 21.2929 16.0721 21.4692 15.956C21.6455 15.8399 21.8498 15.7819 22.082 15.7819H22.9334L19.3085 25.3601ZM32.3699 16.0399V25.4375H30.1769V21.4643H26.3585V25.4375H24.1655V16.0399H26.3585V19.9679H30.1769V16.0399H32.3699Z" fill="white"/>
</svg>
